<?xml version="1.0" encoding="UTF-8"?><svg id="uuid-bb32c52a-d607-4051-9cd7-3980c73d7876" xmlns="http://www.w3.org/2000/svg" viewBox="0 0 544.52 43.25"><g id="uuid-f86c6084-e2f0-4c3c-ad5c-487faf53b3d9"><path d="m268.07,11.95h-9.8c-.23-.36-.21-.72-.27-1.07-.24-1.53-.99-2.28-2.51-2.51-.49-.08-.99-.11-1.49-.11-9.64,0-19.28,0-28.92,0-.67,0-1.33.09-1.98.25-.7.17-1.17.61-1.42,1.28-.13.33-.22.68-.25,1.03-.11,1.25-.17,2.5.02,3.74.23,1.51,1.17,2.33,2.71,2.46.35.03.71.02,1.06.02,10.64,0,21.28,0,31.92,0,2.44,0,4.77.48,6.85,1.81,3.43,2.2,5.27,5.35,5.47,9.43.09,1.83.04,3.67-.31,5.48-.84,4.29-3.4,7.12-7.46,8.66-1.64.62-3.36.81-5.09.81-10.87.02-21.74.02-32.61,0-2.82,0-5.52-.52-7.87-2.2-2.85-2.04-4.45-4.83-4.87-8.31-.13-1.02-.09-2.03.01-3.05.01-.14.02-.29.18-.47h9.73c.22.22.17.46.18.68.01.73.03,1.45.11,2.18.21,1.86.83,2.53,2.68,2.78.31.04.62.04.93.04,10.16,0,20.32,0,30.48,0,2.67,0,3.44-.62,3.75-3.26.16-1.32.1-2.66-.02-3.99-.1-.98-.67-1.58-1.54-1.94-.69-.28-1.41-.35-2.14-.35-4.71,0-9.41,0-14.12,0-6.1,0-12.2.05-18.3-.02-3.66-.04-6.85-1.34-9.28-4.16-1.22-1.42-2.05-3.09-2.37-4.96-.4-2.33-.56-4.67-.07-7.01.98-4.67,4.97-8.4,9.71-9.04.75-.1,1.49-.14,2.24-.14,10.97,0,21.95-.04,32.92.02,4.8.03,8.4,2.23,10.66,6.51.75,1.42,1.06,2.98,1.21,4.56.02.24.05.5-.12.83ZM29.94,19.23v8.13c.35.21.67.14.98.14,6.56,0,13.12,0,19.68,0,.3,0,.63-.07.9.18.02.07.07.15.07.23.03,1.35.09,2.71-.02,4.06-.11,1.37-.76,2.36-2.14,2.76-.46.13-.94.16-1.42.16-11.31,0-22.61,0-33.92,0-.23,0-.46,0-.69,0-1.95-.13-2.86-.99-3.11-2.92-.03-.23-.03-.46-.03-.69,0-6.54,0-13.08,0-19.62,0-.21,0-.42.02-.62.19-1.71.95-2.47,2.66-2.69.35-.05.7-.09,1.06-.09,11.31,0,22.61,0,33.92,0,.63,0,1.25.08,1.86.22.73.16,1.21.62,1.47,1.31.15.41.22.84.28,1.28.16,1.22.11,2.45.11,3.68,0,.26-.07.55.17.8h9.7c.26-.28.22-.56.22-.83.01-1.08.04-2.17.01-3.25-.09-3.92-1.78-7.01-4.91-9.3C54.72.66,52.36.02,49.85.02c-12.54-.01-25.07,0-37.61-.01-1.65,0-3.24.24-4.77.82C4.5,1.97,2.42,4.05,1.08,6.91.23,8.71.02,10.63.01,12.58c-.02,5.08-.01,10.17,0,15.25,0,1.46,0,2.91.08,4.37.26,4.6,3.32,8.73,7.65,10.25,1.76.62,3.58.77,5.41.77,9.97.02,19.95.02,29.92,0,2.43,0,4.87.09,7.3-.09,1.38-.1,2.73-.35,4.01-.85,4.36-1.71,7.29-6.01,7.29-10.7,0-.73,0-1.46,0-2.19,0-3.19.02-6.37-.12-9.56,0-.19.01-.38-.14-.61h-31.5Zm109.21,15.09c0-1.4,0-2.79.01-4.19.01-1.06.59-1.74,1.55-2.13.76-.31,1.57-.42,2.38-.5,2.9-.27,5.8-.52,8.7-.79,3.29-.31,6.58-.64,9.87-.96,3.08-.3,6.17-.59,9.26-.88,2.43-.23,4.75-.83,6.9-2.02,3-1.67,4.81-4.16,5.32-7.57.22-1.47.14-2.95.11-4.43-.04-2.57-.95-4.83-2.67-6.7C178.05,1.42,174.88.02,171.13.02c-10.02,0-20.03,0-30.05,0-3.6,0-6.68,1.19-9.13,3.9-1.28,1.42-2.16,3.05-2.63,4.9-.55,2.16-.39,4.34-.24,6.52,0,.06.06.11.08.15.63.18,9.41.15,9.95-.05.03-.78.05-1.58-.04-2.39-.12-1.11,0-2.2.4-3.25.25-.65.71-1.07,1.37-1.26.7-.21,1.43-.28,2.16-.28,8.58,0,17.16,0,25.74,0,.65,0,1.29.04,1.93.11,1.53.17,2.42,1.11,2.46,2.64.03.92.02,1.83,0,2.75,0,.31-.08.62-.13.93-.11.65-.51,1.08-1.09,1.35-.57.26-1.17.44-1.8.5-.62.06-1.24.12-1.86.18-1.55.15-3.11.3-4.66.44-1.51.14-3.02.28-4.54.42-1.97.19-3.93.39-5.9.57-2.01.19-4.02.36-6.03.55-1.97.19-3.93.39-5.9.57-2.28.21-4.47.71-6.52,1.78-3.34,1.75-5.19,4.51-5.66,8.24-.11.89-.1,1.79-.11,2.68-.07,3.52.15,7.04.11,10.56,0,.22-.04.47.17.64.82.15,52.73.1,53.18-.05.2-.66.16-7.65-.05-8.12-.27-.14-.57-.09-.86-.09-3.69,0-7.37,0-11.06,0-10.08,0-20.16,0-30.23,0-.32,0-.67.08-.95-.13-.11-.14-.12-.29-.12-.44Zm-38.42-12.81c2.01-1.92,3.99-3.65,5.94-5.43,1.93-1.77,3.87-3.54,5.81-5.3,1.96-1.77,3.94-3.52,5.89-5.31,1.92-1.78,3.9-3.5,5.81-5.33-.21-.13-.33-.11-.46-.11-4.35,0-8.7,0-13.06,0-.41,0-.7.18-.99.44-1.47,1.35-2.95,2.7-4.43,4.04-2.19,1.99-4.38,3.97-6.56,5.96-1.4,1.27-2.8,2.55-4.22,3.81-.27.24-.51.55-.85.65-.24-.03-.37-.17-.51-.3-2.7-2.45-5.39-4.89-8.09-7.34-2.46-2.24-4.92-4.48-7.38-6.74-.39-.36-.81-.53-1.35-.53-4.19.02-8.37,0-12.56.01-.2,0-.42-.06-.63.11.16.33.45.52.71.75,2.02,1.83,4.05,3.65,6.07,5.48,1.51,1.37,3.01,2.75,4.53,4.12,2.05,1.86,4.11,3.71,6.16,5.57,1.08.98,2.17,1.94,3.25,2.92.89.81,1.77,1.63,2.74,2.52-7.96,7.24-15.92,14.41-23.94,21.71.34.02.51.03.67.03,4.23,0,8.45,0,12.68,0,.4,0,.79,0,1.11-.31.44-.42.89-.81,1.34-1.22,1.45-1.32,2.89-2.63,4.34-3.95,2.17-1.97,4.35-3.94,6.52-5.91,1.28-1.16,2.56-2.32,3.84-3.48.17-.15.34-.32.66-.27.64.58,1.31,1.19,1.99,1.81,1.54,1.4,3.07,2.81,4.61,4.21,2.16,1.96,4.31,3.92,6.47,5.87,1.02.92,2.04,1.85,3.05,2.77.37.34.78.49,1.3.49,4.19-.02,8.37,0,12.56-.01.2,0,.41.07.69-.15-7.9-7.18-15.78-14.34-23.73-21.57ZM382.31,1.14c0,10.02,0,20.04,0,30.06,0,.48-.03.96-.13,1.43-.25,1.16-.96,1.87-2.11,2.13-.45.1-.9.14-1.36.14-10.43,0-20.86,0-31.29,0-.04,0-.08,0-.12,0-.38.02-.75-.04-1.12-.11-1.48-.29-2.34-1.26-2.37-2.78-.03-1.33-.01-2.67-.01-4,0-9.04,0-18.08,0-27.12,0-.26.07-.55-.14-.77-.64-.16-9.47-.13-9.96.03-.18.28-.11.6-.11.9,0,10,0,20,0,29.99,0,.71,0,1.41.13,2.12.73,4.29,3.05,7.35,7.06,9.09,1.83.79,3.79.97,5.75.97,11.01.02,22.03.01,33.04,0,1.06,0,2.12-.07,3.17-.26,3.95-.69,6.81-2.86,8.61-6.43.91-1.81,1.19-3.77,1.19-5.76.02-10,0-20,0-29.99,0-.22.04-.46-.21-.76-3.23-.01-6.54,0-9.84,0-.23.46-.17.8-.17,1.13Zm-76.44,41.94c.14-.31.09-.65.09-.98,0-10.94,0-21.87,0-32.81,0-.31-.07-.63.14-.91.3-.2.65-.13.97-.13,7.45,0,14.91,0,22.36,0,.3,0,.63.08.9-.13.18-.7.14-7.57-.05-8.03-.31-.12-.65-.07-.98-.07-18.88,0-37.77,0-56.65,0-.21,0-.42,0-.62,0-.17,0-.34.01-.45.16-.16.72-.12,7.49.05,7.96.28.17.6.1.91.1,7.43,0,14.87,0,22.3,0,.32,0,.67-.09,1.03.24v34.59c.77.21,9.54.18,10.01,0ZM476.67.08h-10.06v43.1h10.06V.08Zm-16.16,11.94c0,6.37,0,12.75,0,19.12,0,3.21-1.03,6.02-3.22,8.36-2.13,2.28-4.84,3.41-7.93,3.61-3.39.23-6.78.1-10.18.1-13.06.02-26.11,0-39.17,0-.31,0-.62.04-.91-.06-.21-.47-.25-42.32-.05-43.03.27-.16.52-.11.77-.11,16.32,0,32.65-.01,48.97,0,5.73,0,10.52,4.05,11.52,9.7.13.76.2,1.53.2,2.3Zm-10.2,19.28c0-6.5,0-13,0-19.49,0-.27,0-.54-.02-.81-.14-1.39-.91-2.28-2.24-2.57-.45-.1-.9-.16-1.36-.16-12.28,0-24.56,0-36.85,0-.25,0-.5-.04-.76.2v26.25c.26.23.52.19.76.19.67,0,1.33,0,2,0,11.6,0,23.19,0,34.79,0,.65,0,1.29-.06,1.91-.28.64-.22,1.1-.64,1.41-1.25.33-.66.38-1.35.37-2.07Zm94.13.48c-.09,4.55-2.33,7.95-6.37,10.09-1.54.82-3.23,1.16-4.99,1.26-3.1.18-6.2.08-9.3.09-9.28.02-18.57.02-27.85,0-1.77,0-3.54-.1-5.23-.72-4.61-1.69-7.16-5.01-7.82-9.84-.1-.71-.1-1.41-.1-2.12,0-6.12,0-12.25,0-18.37,0-3.31,1.02-6.23,3.32-8.64,1.83-1.92,4.12-2.99,6.74-3.38.72-.11,1.45-.14,2.18-.14,6.2,0,12.41,0,18.61,0,6.35,0,12.7-.01,19.05,0,2.63,0,5.07.75,7.16,2.37,2.94,2.27,4.57,5.3,4.61,9.02.08,6.79.12,13.58-.01,20.37Zm-10.17-.16c0-6.71,0-13.42,0-20.12,0-.23,0-.46-.03-.69-.15-1.29-1-2.21-2.25-2.42-.51-.08-1.03-.14-1.55-.14-11.14,0-22.28,0-33.42,0-.56,0-1.12.05-1.68.13-1.29.18-1.95.82-2.24,2.09-.1.43-.11.87-.11,1.3,0,6.19,0,12.37,0,18.56,0,.5-.01,1,.01,1.5.08,1.78.91,2.7,2.66,2.99.33.06.66.06,1,.06,5.66,0,11.33,0,16.99,0,5.62,0,11.24,0,16.87,0,.25,0,.5,0,.75-.01,1.67-.13,2.61-.88,2.93-2.32.07-.31.07-.62.07-.93Z" style="fill:#1d1d1b;"/></g></svg>