ply
format ascii 1.0
comment Exported by Aspose.3D 23.4.0
element vertex 144
property float x
property float y
property float z
property float nx
property float ny
property float nz
property float u
property float v
element face 280
property list uchar int vertex_index
end_header
-12.651508 0 59.937232 0.14969228905417128 -0.7000000000000001 0.08690883362374571 0.8231937 0.9270205000000001
-43.366007 0 42.152507 0.00038733754854203273 -0.5 -0.28845115840775565 -0.7911041666666666 -0.2270785
-43.366007 10 42.152507 -0.24980633122572896 0.5 -0.14422557920387782 0.5019801666666666 0.27292150000000004
-12.651508 10 59.937232 0.15001400175339322 0.7000000000000001 -0.08635233663341381 -1.8856713 1.2270205000000003
-29.562697 0 69.64536 -0.07205637080900985 -0.5714285714285714 0.37117310612944826 -0.28283485714285717 1.3115017142857142
-29.562697 10 69.64536 0.07061759542819737 0.5714285714285714 0.3714495261861127 -0.5500217142857142 1.7400731428571428
-53.71651 0 55.662131 -0.17865082566688006 -0.7857142857142857 0.061813049489913154 -1.6482977142857145 0.7046325
-53.71651 10 55.662131 -0.14301593704804583 0.7857142857142857 0.12362609897982631 1.7343330000000001 0.9189182142857144
-53.71651 0 23.7428 6.404963178094914E-05 -0.7000000000000001 -0.17316808589139193 -1.6971563 -1.6065896000000004
-53.71651 10 23.7428 -0.1499679751841095 0.7000000000000001 -0.08658404294569597 1.6971563 -1.3065896000000001
-5.226322 0 51.764818 0.416726483118546 -0.5 -0.1443030157227453 0.4073955 0.253537
-5.226322 10 51.764818 0.333452966237092 0.5 -0.2886060314454906 -3.0136629999999998 0.7535370000000001
-5.226322 0 55.59863 0.4994536599759558 -0.25 0.4333276722349962 0.60612725 0.22261375
-5.226322 10 55.59863 0.6247268299879779 0.25 0.2166638361174981 -0.60612725 0.97261375
-7.993863 0 57.196714 -0.10004301950805841 -0.4 0.5197520521427886 0.7948758 0.4201052
-7.993863 10 57.196714 0.09976838277925097 0.4 0.519804839585534 -0.9875544000000002 1.0201052000000002
-47.691947 0 34.286444 0.07676333644813824 -0.5 0.43673403433167307 -1.6748206666666667 -0.620382
-47.691947 10 34.286444 -0.08658292241134719 0.5 0.43489380785771103 -0.6165618333333333 -0.12038199999999999
-48.027968 0 35.262757 0.4999988819889581 -0.5 0.0008633304376847347 -0.9450724999999999 -0.571566
-48.037558 0 34.748802 0.5937605624102712 -0.4 0.08630408174726495 -0.7736866 -0.47781120000000005
-48.006392 0 34.622795 0.5635422895108617 -0.4 0.20596137485668575 -0.7646798000000001 -0.4828516
-47.944251 0 34.502244 0.4943018758658279 -0.4 0.34009653852329 -0.7544334 -0.48767360000000004
-47.842361 0 34.389383 0.3933884997371393 -0.4 0.4530402722436083 -0.7425980000000001 -0.492188
-47.842361 10 34.389383 0.3933884997371393 0.4 0.4530402722436083 0.7270772000000001 0.10781200000000002
-47.944251 10 34.502244 0.4943018758658279 0.4 0.34009653852329 0.7233930000000001 0.11232639999999999
-48.006392 10 34.622795 0.5635422895108617 0.4 0.20596137485668575 0.7181186 0.11714840000000004
-48.037558 10 34.748802 0.5937605624102712 0.4 0.08630408174726495 0.7116046 0.12218879999999999
-48.027968 10 35.262757 0.499999440994479 0.5 0.00043166521884236737 0.8933375 -0.07156600000000002
-48.057073 0 50.560965 0.599990009978329 -0.4 0.00345400064988614 -1.0494172 0.1546752
-48.057073 10 50.560965 0.5999909645749811 0.4 0.003283994925139461 0.13144479999999997 0.7546752
-47.014614 0 52.516236 0.2990493663644404 -0.4 -0.5201628983826353 -0.7451776000000001 0.2328864
-47.284479 0 52.339001 0.36127744058038036 -0.4 -0.4790392582322349 -0.8265776000000001 0.22579680000000002
-47.508642 0 52.144124 0.42600647793693575 -0.4 -0.4225144740192544 -0.8192508000000001 0.21800160000000002
-47.690016 0 51.93083 0.486337596138293 -0.4 -0.35139115325008796 -0.8102119999999999 0.20947000000000002
-47.831516 0 51.698343 0.535444896716927 -0.4 -0.2707374421460752 -0.7995784 0.20017040000000003
-47.936058 0 51.445888 0.5695546337539833 -0.4 -0.18869954734806874 -0.7874664 0.19007240000000003
-48.006555 0 51.17269 0.5892564866086945 -0.4 -0.11303447699519593 -0.7739928000000001 0.1791444
-48.006555 10 51.17269 0.5892564866086945 0.4 -0.11303447699519593 0.7088184000000001 0.7791444000000001
-47.936058 10 51.445888 0.5695546337539833 0.4 -0.18869954734806874 0.6897048 0.7900724000000001
-47.831516 10 51.698343 0.535444896716927 0.4 -0.2707374421460752 0.6692296 0.8001704000000001
-47.690016 10 51.93083 0.486337596138293 0.4 -0.35139115325008796 0.6472760000000001 0.80947
-47.508642 10 52.144124 0.42600647793693575 0.4 -0.4225144740192544 0.6237276 0.8180016000000001
-47.284479 10 52.339001 0.36127744058038036 0.4 -0.4790392582322349 0.5984672 0.8257968
-47.014614 10 52.516236 0.2989336572971177 0.4 -0.5202294041206884 0.6148288000000002 0.8328864
-30.250614 0 62.192048 0.2511900381631617 -0.5 -0.43232173436482146 -0.3615395 0.7748985
-30.250614 10 62.192048 0.2504451853259304 0.5 -0.4327536555867302 -0.6061989999999998 1.2748985
-29.372197 0 62.496319 -0.1338508457683183 -0.4 -0.5370985890751296 -0.0140722 0.6320896
-29.372197 10 62.496319 0.029119291892274902 0.4 -0.5527594505199178 -0.0400508 1.2320896000000001
-25.14151 0 60.083319 -0.4149245965743749 -0.5 -0.11961053451769635 0.13489066666666666 0.6694619999999999
-25.14151 10 60.083319 -0.33127781489612673 0.5 -0.2769911734472137 -0.37970516666666665 1.1694620000000002
-25.861177 0 59.323965 -0.25017811840267595 -0.5 0.4329096253104144 0.1631155 0.631494
-25.410063 0 59.568704 -0.35816955212716367 -0.4 0.48136739807451345 0.13114 0.5149848
-25.312012 0 59.656089 -0.44067360115571397 -0.4 0.40719378340595375 0.14289079999999998 0.5184804
-25.23089 0 59.766728 -0.5214244720979307 -0.4 0.29684426876292264 0.15396420000000002 0.522906
-25.172216 0 59.907009 -0.5762444648579783 -0.4 0.16715955467918153 0.16413980000000003 0.5285172
-25.172216 10 59.907009 -0.5762444648579783 0.4 0.16715955467918153 -0.17979620000000002 1.1285171999999999
-25.23089 10 59.766728 -0.5214244720979307 0.4 0.29684426876292264 -0.1852782 1.1229060000000002
-25.312012 10 59.656089 -0.44067360115571397 0.4 0.40719378340595375 -0.1898612 1.1184804
-25.410063 10 59.568704 -0.35816955212716367 0.4 0.48136739807451345 -0.19376800000000002 1.1149848
-25.861177 10 59.323965 -0.25042705553451927 0.5 0.4327656692370798 -0.215305 1.131494
-42.185968 0 49.939195 -0.21143748610933633 -0.5714285714285714 0.3727834630405565 -0.9955371428571428 0.18543485714285712
-42.185968 10 49.939195 -0.21167449275079991 0.5714285714285714 0.3726489366245895 0.18856285714285712 0.6140062857142858
-43.38453 0 47.97334 -0.5996685348077646 -0.4 -0.019938084173050742 -0.6010092 0.051170400000000005
-43.375678 0 48.319888 -0.4268314106445097 -0.5714285714285714 0.0385799983796401 -0.8779381428571428 0.09290342857142857
-43.325618 0 48.628391 -0.48594190829762074 -0.5 0.11773046232843334 -0.776119 0.09671549999999998
-43.234818 0 48.903469 -0.6897147791188774 -0.25 0.29460740565199345 -0.44834624999999995 0.05523475
-43.10374 0 49.149744 -0.5037144045368208 -0.4 0.32599355616655407 -0.6120200000000001 0.0982264
-42.932852 0 49.371834 -0.3714244773875568 -0.5 0.33472952901914754 -0.7147764999999999 0.1338875
-42.722617 0 49.574359 -0.3874203529207313 -0.4 0.45815441735595663 -0.5634116000000001 0.11521120000000001
-42.722617 10 49.574359 -0.3874203529207313 0.4 0.45815441735595663 0.4966844 0.7152112000000002
-42.932852 10 49.371834 -0.3714244773875568 0.5 0.33472952901914754 0.6313674999999999 0.6338874999999999
-43.10374 10 49.149744 -0.5037144045368208 0.4 0.32599355616655407 0.4785656 0.6982264000000001
-43.234818 10 48.903469 -0.6897147791188774 0.25 0.29460740565199345 0.23982374999999997 0.80523475
-43.325618 10 48.628391 -0.48594190829762074 0.5 0.11773046232843334 0.609301 0.5967155
-43.375678 10 48.319888 -0.4268314106445097 0.5714285714285714 0.0385799983796401 0.7111201428571428 0.521474857142857
-43.38453 10 47.97334 -0.599676663323406 0.4 -0.019692087352267976 0.46755480000000005 0.6511704
-15.68001 0 21.30863 0.5 -0.25 -0.25 0.69998825 -0.06409525
-15.682654 0 21.30863 0.10003226055937005 -0.4 -0.573186451107996 0.13030300000000006 -0.10255240000000002
-15.682654 10 21.30863 0.2000645211187401 0.4 -0.5463729022159921 -1.4062684 0.49744759999999993
-15.68001 10 21.30863 0.25 0.25 -0.5 -0.170954 0.68590475
-15.68001 0 28.362423 -0.0003071854134873986 -0.5 0.28849756295786266 0.6945975 0.224499
-15.68001 10 28.362423 0.2498464072932563 0.5 0.14424878147893133 -0.6945975 0.724499
-46.326696 0 10.624754 -0.24967809411118774 -0.5 -0.14470180133332405 -1.4265986666666663 -0.662384
-46.326696 10 10.624754 -0.25007130880144257 0.5 0.14402118768583144 -0.3399863333333335 -0.16238399999999997
-29.425111 0 0.906605 0.03875391031416246 -0.7692307692307693 -0.1998320159090828 -0.13814292307692316 -1.7666023076923076
-29.425111 10 0.906605 -0.03812166500591748 0.7692307692307693 -0.19995359162591372 -0.31017199999999995 -1.5358330769230768
-5.218382 0 14.921585 0.1923815530568237 -0.7692307692307693 -0.0665746405997653 2.149153 -0.6885269230769232
-5.218382 10 14.921585 0.1539938753444166 0.7692307692307693 -0.1331492811995306 -2.0582876153846152 -0.4577576923076923
-5.218382 0 46.838272 -6.55489805707843E-05 -0.7000000000000001 0.17316721949380892 1.7047499000000004 1.6076081000000002
-5.218382 10 46.838272 0.1499672255097146 0.7000000000000001 0.08658360974690446 -1.7047499000000004 1.9076081000000003
-53.637134 0 18.861231 -0.4086972511214093 -0.5 0.2169738649444562 -2.1345001666666668 -0.2505605
-53.637134 10 18.861231 -0.32941902466098494 0.5 0.32495262321534935 -0.6592233333333333 0.24943950000000004
-53.77207 0 14.971856 -0.5012263570885549 -0.25 -0.42580906327101636 -0.70164675 -0.2225145
-53.799853 0 16.932417 -0.5999683574688762 -0.4 -0.006161983130361876 -1.0850888 -0.27760080000000004
-53.799853 10 16.932417 -0.5999683574688762 0.4 -0.006161983130361876 0.8531432000000001 0.3223992
-53.77207 10 14.971856 -0.6254885443455387 0.25 -0.2032370544376764 0.41171475 0.5274855
-50.999238 0 13.357896 0.08270304300070852 -0.5 -0.4327436791185054 -1.1244806666666665 -0.525727
-50.999238 10 13.357896 -0.08446884760682197 0.5 -0.4324024733076495 0.9651306666666667 -0.025727000000000055
-11.277341 0 36.276105 -0.12940406421393347 -0.5 -0.40101459313201576 0.15023133333333338 0.6201835
-11.277341 10 36.276105 0.06023731030776983 0.5 -0.41704865685769266 -2.443728833333333 1.1201835
-10.957195 0 35.082834 -0.49999882073959134 -0.5 -0.0008866635298339796 0.9103968333333332 0.56052
-10.937682 0 35.669549 -0.5970417082556406 -0.4 -0.059507970921437114 0.708757 0.4718844
-10.965593 0 35.821808 -0.5782363274538419 -0.4 -0.1601335368144147 0.7167942 0.4779748
-11.025284 0 35.974315 -0.5330499163119499 -0.4 -0.27542292337389684 0.7235596000000001 0.48407520000000004
-11.126089 0 36.126079 -0.4630517806921992 -0.4 -0.3815534672857574 0.7286812 0.49014559999999996
-11.126089 10 36.126079 -0.4630517806921992 0.4 -0.3815534672857574 -0.7469884000000001 1.0901456
-11.025284 10 35.974315 -0.5330499163119499 0.4 -0.27542292337389684 -0.7601740000000001 1.0840752000000002
-10.965593 10 35.821808 -0.5782363274538419 0.4 -0.1601335368144147 -0.7717146 1.0779747999999998
-10.937682 10 35.669549 -0.5970417082556406 0.4 -0.059507970921437114 -0.7819846 1.0718844
-10.957195 10 35.082834 -0.4999994103697956 0.5 -0.0004433317649169898 -0.9714203333333332 1.06052
-10.9228 0 20.178854 -0.5999695573327242 -0.4 -0.006043995534053158 0.4478736 -0.14774320000000002
-10.9228 10 20.178854 -0.599969416150146 0.4 -0.006057994098179031 -1.342152 0.4522568
-12.142529 0 17.914022 -0.2986477744555526 -0.4 0.5203936068993844 0.6469735999999999 -0.23833680000000002
-11.573179 0 18.336363 -0.42018565509074657 -0.4 0.42830364842709456 0.6069934 -0.2214432
-11.360809 0 18.57854 -0.4805624511256881 -0.4 0.3592488421248854 0.6343144000000001 -0.21175600000000003
-11.193336 0 18.844032 -0.5312399763863836 -0.4 0.2788979876029848 0.6598394000000001 -0.2011364
-11.068279 0 19.134826 -0.5673312698590026 -0.4 0.19528243710116822 0.683668 -0.18950440000000002
-10.983158 0 19.452905 -0.5885164932653056 -0.4 0.116826097917835 0.7058996000000001 -0.1767812
-10.983158 10 19.452905 -0.5885164932653056 0.4 0.116826097917835 -0.7812044 0.4232188000000001
-11.068279 10 19.134826 -0.5673312698590026 0.4 0.19528243710116822 -0.7966264000000001 0.41049559999999996
-11.193336 10 18.844032 -0.5312399763863836 0.4 0.2788979876029848 -0.8104502 0.3988636
-11.360809 10 18.57854 -0.4805624511256881 0.4 0.3592488421248854 -0.8225776 0.388244
-11.573179 10 18.336363 -0.42018565509074657 0.4 0.42830364842709456 -0.8329090000000001 0.37855679999999997
-12.142529 10 17.914022 -0.2986641273596085 0.4 0.520384221818388 -0.7975844 0.36166319999999996
-28.573154 0 8.452523 -0.2496032476721149 -0.5 0.43324151806333955 -0.2660538333333333 -0.7709959999999999
-28.573154 10 8.452523 -0.2495566744554295 0.5 0.43326834693644634 -0.6819276666666667 -0.270996
-30.065404 0 8.304357 0.3004175192310101 -0.4 0.5193731688311684 -0.049855800000000006 -0.6227232
-29.866285 0 8.210016 0.20715543159734884 -0.4 0.563104454927961 -0.09083279999999999 -0.6264968
-29.671506 0 8.157843 0.10049437399050871 -0.4 0.5915242013614116 -0.0717472 -0.628584
-29.480696 0 8.142877 -0.006300030701384421 -0.4 0.5999669237659371 -0.05282039999999999 -0.6291824
-29.293482 0 8.160158 -0.10120225716538243 -0.4 0.5914035028173504 -0.0340382 -0.6284912
-28.928357 0 8.271614 -0.23460522906502349 -0.4 0.5522321853127976 0.0031558000000000003 -0.6240328
-28.928357 10 8.271614 -0.23460522906502349 0.4 0.5522321853127976 -0.0483322 -0.02403279999999999
-29.293482 10 8.160158 -0.10120225716538243 0.4 0.5914035028173504 -0.056315800000000006 -0.02849120000000003
-29.480696 10 8.142877 -0.006300030701384421 0.4 0.5999669237659371 -0.060121200000000014 -0.02918240000000001
-29.671506 10 8.157843 0.10049437399050871 0.4 0.5915242013614116 -0.06378320000000001 -0.028584000000000033
-29.866285 10 8.210016 0.20715543159734884 0.4 0.563104454927961 -0.06728640000000001 -0.026496799999999966
-30.065404 10 8.304357 0.30097351801517336 0.4 0.5190511687841708 -0.040497599999999995 -0.02272319999999999
-34.142632 0 10.645921 0.24959202999400865 -0.5 -0.14405286769414907 -0.305868 -0.661326
-32.024644 0 9.431483 0.2986804802636644 -0.4 0.5203748367373916 -0.23730880000000001 -0.5776384
-32.024644 10 9.431483 0.2986804802636644 0.4 0.5203748367373916 -0.041093600000000015 0.02236159999999998
-34.142632 10 10.645921 0.2491189873941162 0.5 0.14486939030439908 0.07386599999999997 -0.16132599999999997
-24.828307 0 16.025894 0.2500903152640501 -0.5 -0.43296054579040805 -0.2945359999999999 -0.392327
-24.828307 10 16.025894 0.2500903152640501 0.5 -0.43296054579040805 -0.7689009999999998 0.10767300000000005
3 0 1 3
3 3 1 2
3 4 0 5
3 5 0 3
3 6 4 7
3 7 4 5
3 8 6 9
3 9 6 7
3 10 8 11
3 11 8 9
3 12 10 13
3 13 10 11
3 14 12 15
3 15 12 13
3 16 14 17
3 17 14 15
3 18 19 27
3 27 19 26
3 26 19 20
3 26 20 25
3 25 20 21
3 25 21 24
3 24 21 22
3 24 22 23
3 23 22 16
3 23 16 17
3 28 18 29
3 29 18 27
3 30 31 43
3 43 31 42
3 42 31 32
3 42 32 41
3 41 32 33
3 41 33 40
3 40 33 34
3 40 34 39
3 39 34 35
3 39 35 38
3 38 35 36
3 38 36 37
3 37 36 28
3 37 28 29
3 44 30 45
3 45 30 43
3 46 44 47
3 47 44 45
3 48 46 49
3 49 46 47
3 50 51 59
3 59 51 58
3 58 51 52
3 58 52 57
3 57 52 53
3 57 53 56
3 56 53 54
3 56 54 55
3 55 54 48
3 55 48 49
3 60 50 61
3 61 50 59
3 62 63 75
3 75 63 74
3 74 63 64
3 74 64 73
3 73 64 65
3 73 65 72
3 72 65 66
3 72 66 71
3 71 66 67
3 71 67 70
3 70 67 68
3 70 68 69
3 69 68 60
3 69 60 61
3 1 62 2
3 2 62 75
3 75 61 2
3 2 61 59
3 2 59 3
3 3 59 58
3 3 58 57
3 75 74 61
3 61 74 69
3 69 74 70
3 70 74 73
3 70 73 71
3 71 73 72
3 57 56 3
3 3 56 55
3 3 55 49
3 3 49 5
3 5 49 47
3 5 47 45
3 5 45 7
3 7 45 43
3 7 43 42
3 42 41 7
3 7 41 40
3 7 40 39
3 39 38 7
3 7 38 37
3 7 37 29
3 29 27 7
3 7 27 9
3 9 27 26
3 9 26 25
3 25 24 9
3 9 24 23
3 9 23 17
3 9 17 11
3 11 17 15
3 11 15 13
3 63 62 60
3 60 62 1
3 60 1 50
3 50 1 0
3 50 0 51
3 51 0 52
3 52 0 53
3 53 0 54
3 54 0 48
3 48 0 4
3 48 4 46
3 46 4 44
3 44 4 6
3 44 6 30
3 30 6 31
3 31 6 32
3 32 6 33
3 33 6 34
3 34 6 35
3 35 6 36
3 36 6 28
3 28 6 18
3 18 6 8
3 18 8 19
3 19 8 20
3 20 8 21
3 21 8 22
3 22 8 16
3 16 8 10
3 16 10 14
3 14 10 12
3 60 68 63
3 63 68 67
3 63 67 64
3 64 67 66
3 64 66 65
3 76 77 79
3 79 77 78
3 80 76 81
3 81 76 79
3 82 80 83
3 83 80 81
3 84 82 85
3 85 82 83
3 86 84 87
3 87 84 85
3 88 86 89
3 89 86 87
3 90 88 91
3 91 88 89
3 92 93 95
3 95 93 94
3 94 93 90
3 94 90 91
3 96 92 97
3 97 92 95
3 98 96 99
3 99 96 97
3 100 101 109
3 109 101 108
3 108 101 102
3 108 102 107
3 107 102 103
3 107 103 106
3 106 103 104
3 106 104 105
3 105 104 98
3 105 98 99
3 110 100 111
3 111 100 109
3 112 113 123
3 123 113 122
3 122 113 114
3 122 114 121
3 121 114 115
3 121 115 120
3 120 115 116
3 120 116 119
3 119 116 117
3 119 117 118
3 118 117 110
3 118 110 111
3 124 112 125
3 125 112 123
3 126 127 137
3 137 127 136
3 136 127 128
3 136 128 135
3 135 128 129
3 135 129 134
3 134 129 130
3 134 130 133
3 133 130 131
3 133 131 132
3 132 131 124
3 132 124 125
3 138 139 141
3 141 139 140
3 140 139 126
3 140 126 137
3 77 142 78
3 78 142 143
3 143 142 138
3 143 138 141
3 79 78 81
3 81 78 143
3 81 143 83
3 83 143 141
3 83 141 85
3 85 141 140
3 85 140 137
3 137 136 85
3 85 136 135
3 85 135 134
3 134 133 85
3 85 133 132
3 85 132 125
3 85 125 87
3 87 125 123
3 87 123 122
3 122 121 87
3 87 121 120
3 87 120 119
3 119 118 87
3 87 118 111
3 87 111 109
3 87 109 89
3 89 109 108
3 89 108 107
3 107 106 89
3 89 106 105
3 89 105 99
3 89 99 91
3 91 99 97
3 91 97 94
3 94 97 95
3 142 82 138
3 138 82 84
3 138 84 139
3 139 84 126
3 126 84 127
3 127 84 128
3 128 84 129
3 129 84 130
3 130 84 131
3 131 84 124
3 124 84 86
3 124 86 112
3 112 86 113
3 113 86 114
3 114 86 115
3 115 86 116
3 116 86 117
3 117 86 110
3 110 86 100
3 100 86 88
3 100 88 101
3 101 88 102
3 102 88 103
3 103 88 104
3 104 88 98
3 98 88 90
3 98 90 96
3 96 90 93
3 96 93 92
3 82 142 80
3 80 142 77
3 80 77 76
