<?xml version="1.0" encoding="UTF-8"?><svg id="uuid-f713479e-899b-4194-9999-5b40029e2176" xmlns="http://www.w3.org/2000/svg" viewBox="0 0 183.62 259.81"><g id="uuid-d99ab2b6-456b-44c3-914e-bb25039104ef"><path d="m28.08,36.7C49.8,24.23,70.8,12.17,92.01,0c30.4,17.6,60.81,35.2,91.29,52.85v120.64C121.83,137.97,60.94,102.78.03,67.58v-14.49c3.37-1.94,6.92-4,10.46-6.04,50.21,28.97,100.19,57.82,150.04,86.59,1.79-.98,1.27-2.45,1.27-3.69.05-19.27.01-38.55.11-57.82.02-3.31-.98-5.69-3.94-7.39-21.14-12.16-42.23-24.39-63.36-36.57-.84-.49-1.87-.66-3.32-1.15-5.2,2.96-10.64,6.07-15.99,9.12.15,1.98,1.65,2.25,2.72,2.87,20.55,11.86,41.08,23.74,61.7,35.47,3.09,1.75,4.65,3.73,4.53,7.43-.24,7.13-.07,14.27-.07,22-38.73-22.43-77.08-44.63-116.09-67.22Z" fill="#1d1d1b"/><path d="m39.54,182.69v-26.66c38.53,22.3,76.8,44.45,115.83,67.04-21.49,12.36-42.48,24.43-63.88,36.73-30.45-17.63-60.98-35.31-91.49-52.97v-120.63c61.33,35.44,122.13,70.57,183,105.74,1.09,4.88.38,9.66.51,14.7-3.44,2-6.84,3.98-10.48,6.1-50.09-28.9-100.18-57.8-150.13-86.62-1.81,1.5-1.21,3.11-1.21,4.51-.05,18.78.06,37.56-.13,56.33-.04,3.98,1.23,6.62,4.61,8.56,20.72,11.89,41.4,23.84,62.1,35.76,1.77,1.02,3.61,1.74,5.64.56,4.87-2.81,9.74-5.6,15.41-8.85-23.79-13.74-46.83-27.05-69.77-40.3Z" fill="#1d1d1b"/></g></svg>