<?xml version="1.0" encoding="UTF-8"?><svg xmlns="http://www.w3.org/2000/svg" viewBox="0 0 339.92 83.2"><defs><style>.cls-1{fill:#1d1d1b;}</style></defs><g><path class="cls-1" d="m42.16,25.68c0-2.8-1.04-5.6-3.36-7.28-2.88-2.16-6.56-2.4-10.08-2.4h-9.36c-3.84,0-7.6,1.28-10.08,4.24-2.8,3.52-3.36,8.24-3.36,12.72v12.48c0,4.88.48,9.84,3.36,13.92,2.24,3.12,6.16,4.64,10.08,4.64h22.8v-18.08h-15.68v-3.2h19.2v24.48h-26.32c-4.88,0-9.76-1.6-12.72-5.44-3.52-4.56-4.24-10.56-4.24-16.32v-12.48c0-5.44.8-10.96,4.24-15.12,3.12-3.76,7.92-5.04,12.72-5.04h9.36c4.48,0,9.12.4,12.72,3.2,2.96,2.24,4.24,5.92,4.24,9.68v3.44h-3.52v-3.44Z"/><path class="cls-1" d="m82.48,30.4l-14.96,18.4,14.96,18.4h-4.08l-12.96-15.84-12.88,15.84h-4.16l15.04-18.4-15.04-18.4h4.16l12.88,15.84,12.88-15.84h4.16Z"/><path class="cls-1" d="m108.16,40.8c2.8,0,5.68-.48,7.84-2.32,1.92-1.68,2.56-4.24,2.56-6.8v-5.76c0-2.16-.72-4.24-2.56-5.44-2.24-1.52-5.04-1.76-7.84-1.76h-7.36c-2.8,0-5.52.24-7.76,1.76-1.84,1.2-2.64,3.28-2.64,5.44v2.56h-3.2v-2.56c0-2.96.96-6,3.44-7.84,2.88-2.16,6.56-2.56,10.16-2.56h7.36c3.6,0,7.36.4,10.24,2.56,2.48,1.84,3.36,4.88,3.36,7.84v5.76c0,3.44-.8,6.88-3.36,9.2-2.8,2.48-6.48,3.12-10.24,3.12h-7.36c-2.8,0-5.6.48-7.76,2.4-1.92,1.84-2.64,4.48-2.64,7.12v10.48h31.36v3.2h-34.56v-13.68c0-3.52.88-7.04,3.44-9.52,2.8-2.56,6.4-3.2,10.16-3.2h7.36Z"/><path class="cls-1" d="m189.44,24.32c0-2.48-.72-4.72-2.56-6.24-2.16-1.84-4.96-2.08-7.76-2.08h-7.44c-2.88,0-5.84.24-8.16,2.08-1.92,1.52-2.72,3.76-2.72,6.24v5.76c0,2.48.8,4.72,2.72,6.24,2.32,1.84,5.28,2.08,8.16,2.08h7.6c3.84,0,7.84.4,10.8,2.88,2.56,2.16,3.6,5.36,3.6,8.64v5.76c0,3.28-1.04,6.48-3.6,8.64-2.96,2.48-6.96,2.88-10.8,2.88h-7.6c-3.84,0-7.84-.4-10.8-2.88-2.56-2.16-3.6-5.36-3.6-8.64v-2.88h3.52v2.88c0,2.48.8,4.72,2.72,6.24,2.32,1.84,5.28,2.08,8.16,2.08h7.6c2.88,0,5.84-.24,8.16-2.08,1.92-1.52,2.72-3.76,2.72-6.24v-5.76c0-2.48-.8-4.72-2.72-6.24-2.32-1.84-5.28-2.08-8.16-2.08h-7.6c-3.84,0-7.84-.4-10.8-2.88-2.56-2.16-3.6-5.36-3.6-8.64v-5.76c0-3.28,1.04-6.48,3.6-8.64,2.96-2.48,6.96-2.88,10.8-2.88h7.44c3.76,0,7.52.4,10.4,2.88,2.48,2.16,3.44,5.36,3.44,8.64v2.88h-3.52v-2.88Z"/><path class="cls-1" d="m206.08,55.44c0,2.24.16,4.56,1.68,6.4,1.2,1.52,3.2,2.16,5.2,2.16h7.04v3.2h-7.04c-2.8,0-5.76-.8-7.6-2.96-2.16-2.48-2.48-5.68-2.48-8.8v-21.84h-6.24v-3.2h6.24v-11.44h3.2v11.44h10.88v3.2h-10.88v21.84Z"/><path class="cls-1" d="m226.56,52.72c0,2.96.24,6,2.08,8.48,1.52,1.92,3.84,2.8,6.32,2.8h14.32V30.4h3.2v36.8h-17.52c-3.28,0-6.56-1.04-8.72-3.6-2.48-3.12-2.88-7.04-2.88-10.88v-22.32h3.2v22.32Z"/><path class="cls-1" d="m270.72,67.2c-3.44,0-6.8-1.04-8.96-3.6-2.48-2.96-2.96-7.04-2.96-10.88v-7.84c0-3.84.48-7.92,2.96-10.88,2.16-2.56,5.52-3.6,8.96-3.6h14.88V8.8h3.2v58.4h-18.08Zm0-33.6c-2.48,0-5.04.8-6.56,2.8-1.84,2.48-2.16,5.52-2.16,8.48v7.84c0,2.96.32,6,2.16,8.48,1.52,2,4.08,2.8,6.56,2.8h14.88v-30.4h-14.88Z"/><path class="cls-1" d="m295.36,17.44h4.48v4.56h-4.48v-4.56Zm.64,12.96h3.2v36.8h-3.2V30.4Z"/><path class="cls-1" d="m337.2,52.72c0,3.92-.56,7.92-3.12,10.88-2.32,2.64-5.92,3.6-9.44,3.6h-6.56c-3.52,0-7.12-.96-9.44-3.6-2.56-2.96-3.12-6.96-3.12-10.88v-7.84c0-3.92.56-7.92,3.12-10.88,2.32-2.64,5.92-3.6,9.44-3.6h6.56c3.52,0,7.12.96,9.44,3.6,2.56,2.96,3.12,6.96,3.12,10.88v7.84Zm-3.2-7.84c0-3.12-.4-6.16-2.32-8.48-1.68-2-4.4-2.8-7.04-2.8h-6.56c-2.64,0-5.36.8-7.04,2.8-1.92,2.32-2.32,5.36-2.32,8.48v7.84c0,3.12.4,6.16,2.32,8.48,1.68,2,4.4,2.8,7.04,2.8h6.56c2.64,0,5.36-.8,7.04-2.8,1.92-2.32,2.32-5.36,2.32-8.48v-7.84Z"/></g></svg>